<mxfile host="65bd71144e">
    <diagram id="o9CiHeCptmeW-86IK6wF" name="Page-1">
        <mxGraphModel dx="1318" dy="907" grid="1" gridSize="10" guides="1" tooltips="1" connect="1" arrows="1" fold="1" page="1" pageScale="1" pageWidth="1100" pageHeight="850" math="0" shadow="0">
            <root>
                <mxCell id="0"/>
                <mxCell id="1" parent="0"/>
                <mxCell id="2" value="&lt;font color=&quot;#000000&quot;&gt;Weather PUD&lt;/font&gt;" style="rounded=0;whiteSpace=wrap;html=1;fillColor=#757575;" vertex="1" parent="1">
                    <mxGeometry x="450" y="10" width="120" height="60" as="geometry"/>
                </mxCell>
                <mxCell id="3" value="&lt;font color=&quot;#000000&quot;&gt;fromFile(Filename, header[], arr[270][18])&lt;/font&gt;" style="rounded=0;whiteSpace=wrap;html=1;fillColor=#757575;" vertex="1" parent="1">
                    <mxGeometry x="160" y="100" width="120" height="60" as="geometry"/>
                </mxCell>
                <mxCell id="4" value="1st row (header) to array" style="rounded=0;whiteSpace=wrap;html=1;fontColor=#000000;fillColor=#757575;" vertex="1" parent="1">
                    <mxGeometry x="90" y="190" width="120" height="60" as="geometry"/>
                </mxCell>
                <mxCell id="5" value="rest of data -&amp;gt; 2darray" style="rounded=0;whiteSpace=wrap;html=1;fontColor=#000000;fillColor=#757575;" vertex="1" parent="1">
                    <mxGeometry x="240" y="190" width="120" height="60" as="geometry"/>
                </mxCell>
                <mxCell id="6" value="Welcome to Weather PUD" style="rounded=0;whiteSpace=wrap;html=1;fontColor=#000000;fillColor=#757575;" vertex="1" parent="1">
                    <mxGeometry y="100" width="120" height="60" as="geometry"/>
                </mxCell>
                <mxCell id="7" value="&lt;br&gt;A)&lt;br&gt;sourceSelect(arr[270][18])" style="rounded=0;whiteSpace=wrap;html=1;fontColor=#000000;fillColor=#757575;" vertex="1" parent="1">
                    <mxGeometry x="370" y="100" width="120" height="60" as="geometry"/>
                </mxCell>
                <mxCell id="8" value="ROW -15 + index" style="rounded=0;whiteSpace=wrap;html=1;fontColor=#000000;fillColor=#757575;" vertex="1" parent="1">
                    <mxGeometry x="360" y="750" width="120" height="60" as="geometry"/>
                </mxCell>
                <mxCell id="9" value="A)&lt;br&gt;sourceSelect(arr[270][18])" style="rounded=0;whiteSpace=wrap;html=1;fontColor=#000000;fillColor=#757575;" vertex="1" parent="1">
                    <mxGeometry x="360" y="290" width="120" height="60" as="geometry"/>
                </mxCell>
                <mxCell id="10" value="cout &amp;lt;&amp;lt; Source" style="rounded=0;whiteSpace=wrap;html=1;fontColor=#000000;fillColor=#757575;" vertex="1" parent="1">
                    <mxGeometry x="360" y="380" width="120" height="60" as="geometry"/>
                </mxCell>
                <mxCell id="11" value="getline(cin,sorce)" style="rounded=0;whiteSpace=wrap;html=1;fontColor=#000000;fillColor=#757575;" vertex="1" parent="1">
                    <mxGeometry x="500" y="380" width="120" height="60" as="geometry"/>
                </mxCell>
                <mxCell id="12" value="B)&lt;br&gt;dateSelect(arr[270][18])" style="rounded=0;whiteSpace=wrap;html=1;fontColor=#000000;fillColor=#757575;" vertex="1" parent="1">
                    <mxGeometry x="550" y="100" width="120" height="60" as="geometry"/>
                </mxCell>
                <mxCell id="13" value="B)&lt;br&gt;dateSelect(arr[270][18])" style="rounded=0;whiteSpace=wrap;html=1;fontColor=#000000;fillColor=#757575;" vertex="1" parent="1">
                    <mxGeometry x="360" y="470" width="120" height="60" as="geometry"/>
                </mxCell>
                <mxCell id="14" value="lastcolumn of every 15th row" style="rounded=0;whiteSpace=wrap;html=1;fontColor=#000000;fillColor=#757575;" vertex="1" parent="1">
                    <mxGeometry x="220" y="560" width="120" height="60" as="geometry"/>
                </mxCell>
                <mxCell id="15" value="cout &amp;lt;&amp;lt; date" style="rounded=0;whiteSpace=wrap;html=1;fontColor=#000000;fillColor=#757575;" vertex="1" parent="1">
                    <mxGeometry x="360" y="560" width="120" height="60" as="geometry"/>
                </mxCell>
                <mxCell id="16" value="getline(cin,sorce)" style="rounded=0;whiteSpace=wrap;html=1;fontColor=#000000;fillColor=#757575;" vertex="1" parent="1">
                    <mxGeometry x="500" y="560" width="120" height="60" as="geometry"/>
                </mxCell>
                <mxCell id="17" value="C)&lt;br&gt;getWeather(header[], arr[270][18])" style="rounded=0;whiteSpace=wrap;html=1;fontColor=#000000;fillColor=#757575;" vertex="1" parent="1">
                    <mxGeometry x="720" y="100" width="120" height="60" as="geometry"/>
                </mxCell>
                <mxCell id="18" value="C)&lt;br&gt;getWeather(header[], arr[270][18])" style="rounded=0;whiteSpace=wrap;html=1;fontColor=#000000;fillColor=#757575;" vertex="1" parent="1">
                    <mxGeometry x="360" y="670" width="120" height="60" as="geometry"/>
                </mxCell>
                <mxCell id="19" value="for(int idx; &amp;lt;ROW;idx++)" style="rounded=0;whiteSpace=wrap;html=1;fontColor=#000000;fillColor=#757575;" vertex="1" parent="1">
                    <mxGeometry x="220" y="750" width="120" height="60" as="geometry"/>
                </mxCell>
                <mxCell id="20" value="lastcolumn of every 15th row" style="rounded=0;whiteSpace=wrap;html=1;fontColor=#000000;fillColor=#757575;" vertex="1" parent="1">
                    <mxGeometry x="220" y="380" width="120" height="60" as="geometry"/>
                </mxCell>
                <mxCell id="21" value="Cout&amp;lt;&amp;lt;formatted rep" style="rounded=0;whiteSpace=wrap;html=1;fontColor=#000000;fillColor=#757575;" vertex="1" parent="1">
                    <mxGeometry x="500" y="750" width="120" height="60" as="geometry"/>
                </mxCell>
            </root>
        </mxGraphModel>
    </diagram>
</mxfile>